<?xml version="1.0" standalone="no"?><svg xmlns="http://www.w3.org/2000/svg" viewBox="0 0 1440 320"><path fill="#0099ff" fill-opacity="1" d="M0,224L0,96L36.9,96L36.9,224L73.8,224L73.8,192L110.8,192L110.8,224L147.7,224L147.7,160L184.6,160L184.6,192L221.5,192L221.5,256L258.5,256L258.5,96L295.4,96L295.4,128L332.3,128L332.3,160L369.2,160L369.2,128L406.2,128L406.2,0L443.1,0L443.1,192L480,192L480,160L516.9,160L516.9,256L553.8,256L553.8,256L590.8,256L590.8,32L627.7,32L627.7,128L664.6,128L664.6,160L701.5,160L701.5,32L738.5,32L738.5,224L775.4,224L775.4,32L812.3,32L812.3,256L849.2,256L849.2,288L886.2,288L886.2,288L923.1,288L923.1,64L960,64L960,192L996.9,192L996.9,192L1033.8,192L1033.8,256L1070.8,256L1070.8,64L1107.7,64L1107.7,288L1144.6,288L1144.6,32L1181.5,32L1181.5,320L1218.5,320L1218.5,224L1255.4,224L1255.4,256L1292.3,256L1292.3,64L1329.2,64L1329.2,224L1366.2,224L1366.2,96L1403.1,96L1403.1,128L1440,128L1440,0L1403.1,0L1403.1,0L1366.2,0L1366.2,0L1329.2,0L1329.2,0L1292.3,0L1292.3,0L1255.4,0L1255.4,0L1218.5,0L1218.5,0L1181.5,0L1181.5,0L1144.6,0L1144.6,0L1107.7,0L1107.7,0L1070.8,0L1070.8,0L1033.8,0L1033.8,0L996.9,0L996.9,0L960,0L960,0L923.1,0L923.1,0L886.2,0L886.2,0L849.2,0L849.2,0L812.3,0L812.3,0L775.4,0L775.4,0L738.5,0L738.5,0L701.5,0L701.5,0L664.6,0L664.6,0L627.7,0L627.7,0L590.8,0L590.8,0L553.8,0L553.8,0L516.9,0L516.9,0L480,0L480,0L443.1,0L443.1,0L406.2,0L406.2,0L369.2,0L369.2,0L332.3,0L332.3,0L295.4,0L295.4,0L258.5,0L258.5,0L221.5,0L221.5,0L184.6,0L184.6,0L147.7,0L147.7,0L110.8,0L110.8,0L73.8,0L73.8,0L36.9,0L36.9,0L0,0L0,0Z"></path></svg>